<svg width="250" height="250" xmlns="http://www.w3.org/2000/svg">

 <g>
  <title>background</title>
  <rect fill="none" id="canvas_background" height="252" width="252" y="-1" x="-1"/>
 </g>
 <g>
  <title>Layer 1</title>
  <g id="svg_6">
   <path id="svg_7" d="m247.521,126.371c-0.791,2.568 -2.526,4.448 -4.384,6.299c-12.448,12.406 -24.857,24.852 -37.278,37.284c-4.476,4.478 -9.259,4.465 -13.752,-0.032c-12.82,-12.83 -25.641,-25.659 -38.456,-38.491c-4.366,-4.372 -4.364,-9.144 0.013,-13.526c12.888,-12.906 25.778,-25.809 38.671,-38.708c4.195,-4.198 9.124,-4.2 13.318,-0.004c12.499,12.501 24.979,25.02 37.499,37.496c1.859,1.852 3.586,3.741 4.369,6.31l0,3.372z" fill="#31AFE1" clip-rule="evenodd" fill-rule="evenodd"/>
   <path id="svg_8" d="m123.953,246.566c-2.556,-0.812 -4.408,-2.582 -6.251,-4.436c-12.395,-12.458 -24.828,-24.877 -37.247,-37.312c-4.444,-4.45 -4.449,-9.198 -0.015,-13.638c12.855,-12.865 25.709,-25.729 38.567,-38.592c4.274,-4.274 9.171,-4.29 13.422,-0.037c12.856,12.864 25.711,25.729 38.563,38.597c4.415,4.421 4.428,9.264 0.031,13.664c-12.527,12.541 -25.075,25.066 -37.573,37.633c-1.789,1.798 -3.629,3.415 -6.123,4.12l-3.374,0l0,0.001z" fill="#31AFE1" clip-rule="evenodd" fill-rule="evenodd"/>
   <path id="svg_9" d="m78.841,93.859c0,-14.303 0.129,-28.608 -0.081,-42.909c-0.061,-4.14 0.928,-7.374 4.089,-10.104c2.543,-2.198 4.797,-4.733 7.179,-7.118c9.423,-9.433 18.845,-18.867 28.271,-28.296c4.433,-4.432 9.213,-4.429 13.643,0.002c12.821,12.825 25.641,25.653 38.459,38.482c4.403,4.407 4.4,9.254 -0.003,13.663c-15.16,15.179 -30.326,30.356 -45.49,45.533c-13.391,13.405 -26.78,26.809 -40.173,40.212c-2.481,2.482 -4.679,1.905 -5.581,-1.536c-0.278,-1.066 -0.3,-2.219 -0.301,-3.332c-0.018,-14.866 -0.012,-29.732 -0.012,-44.597" fill="#31AFE1" clip-rule="evenodd" fill-rule="evenodd"/>
   <path id="svg_10" d="m48.182,124.853c0,13.127 0.019,26.256 -0.026,39.383c-0.005,1.247 -0.203,2.567 -0.65,3.724c-0.876,2.279 -2.52,2.561 -4.241,0.844c-6.037,-6.027 -12.057,-12.071 -18.083,-18.107c-6.965,-6.977 -13.932,-13.953 -20.894,-20.934c-2.882,-2.889 -2.895,-6.898 -0.024,-9.801c12.82,-12.967 25.643,-25.933 38.472,-38.895c0.848,-0.857 1.648,-2.02 3.089,-1.475c1.378,0.52 1.922,1.763 2.118,3.141c0.122,0.854 0.218,1.722 0.22,2.583c0.013,13.179 0.009,26.359 0.009,39.537l0.01,0z" fill="#31AFE1" clip-rule="evenodd" fill-rule="evenodd"/>
  </g>
 </g>
</svg>